<svg width="36" height="36" viewBox="0 0 36 36" fill="none" xmlns="http://www.w3.org/2000/svg">
<path fill-rule="evenodd" clip-rule="evenodd" d="M28.9269 8.89301C28.3269 8.29267 27.6146 7.81642 26.8305 7.4915C26.0465 7.16657 25.2061 6.99933 24.3574 6.99933C23.5086 6.99933 22.6682 7.16657 21.8842 7.4915C21.1001 7.81642 20.3878 8.29267 19.7879 8.89301L17.9589 10.721L16.1319 8.89301C14.9201 7.68097 13.2765 6.99995 11.5626 6.99976C9.84867 6.99957 8.2049 7.68024 6.99286 8.89201C5.78082 10.1038 5.0998 11.7474 5.09961 13.4613C5.09942 15.1752 5.78008 16.819 6.99186 18.031L8.81986 19.86L17.2519 28.294C17.4394 28.4815 17.6937 28.5868 17.9589 28.5868C18.224 28.5868 18.4783 28.4815 18.6659 28.294L27.0989 19.86L28.9269 18.032C29.5271 17.4321 30.0032 16.7198 30.328 15.9359C30.6528 15.1519 30.82 14.3116 30.82 13.463C30.82 12.6144 30.6528 11.7741 30.328 10.9902C30.0032 10.2062 29.5271 9.49392 28.9269 8.89401V8.89301Z" stroke="#333333" stroke-width="1.7" stroke-linecap="round"/>
</svg>
