<svg width="19" height="19" viewBox="0 0 19 19" fill="none" xmlns="http://www.w3.org/2000/svg">
<path d="M18.0811 18.081L13.9611 13.961M8.4671 15.334C9.36888 15.334 10.2618 15.1564 11.095 14.8113C11.9281 14.4662 12.6851 13.9603 13.3228 13.3227C13.9605 12.685 14.4663 11.928 14.8114 11.0949C15.1565 10.2617 15.3341 9.36876 15.3341 8.46697C15.3341 7.56519 15.1565 6.67223 14.8114 5.83909C14.4663 5.00595 13.9605 4.24893 13.3228 3.61127C12.6851 2.97361 11.9281 2.46779 11.095 2.12269C10.2618 1.77759 9.36888 1.59998 8.4671 1.59998C6.64585 1.59998 4.89921 2.32346 3.61139 3.61127C2.32358 4.89909 1.6001 6.64573 1.6001 8.46697C1.6001 10.2882 2.32358 12.0349 3.61139 13.3227C4.89921 14.6105 6.64585 15.334 8.4671 15.334V15.334Z" stroke="#5F0080" stroke-width="1.7" stroke-linecap="round"/>
</svg>
